<?xml version="1.0" encoding="utf-8"?>
<!-- Generator: Adobe Illustrator 25.3.0, SVG Export Plug-In . SVG Version: 6.00 Build 0)  -->
<svg version="1.1" xmlns="http://www.w3.org/2000/svg" xmlns:xlink="http://www.w3.org/1999/xlink" x="0px" y="0px"
	 viewBox="0 0 1366 768" style="enable-background:new 0 0 1366 768;" xml:space="preserve">
<style type="text/css">
	.st0{opacity:0.16;}
	.st1{fill:#6BA2CE;}
	.st2{display:none;fill:#6BA2CE;}
	.st3{opacity:0.3;fill:none;stroke:#6BA2CE;stroke-width:19;stroke-linecap:round;stroke-miterlimit:10;}
</style>
<g id="Bulb">
	<g class="st0">
		<path class="st1" d="M602.5,624C602.5,624,602.5,624,602.5,624c-0.1-0.1-0.1-0.1-0.1-0.2L602.5,624z"/>
		<path class="st1" d="M650.6,378.8C650.7,378.8,650.7,378.8,650.6,378.8c0.1,0.1,0.1,0.1,0.1,0.1L650.6,378.8z"/>
		<path class="st1" d="M607.5,384c0.1-0.1,0.1-0.2,0.2-0.2c0,0,0,0,0,0L607.5,384z"/>
		<path class="st1" d="M426.8,451.2C426.8,451.1,426.8,451.1,426.8,451.2c-0.1-0.1-0.1-0.1-0.1-0.2L426.8,451.2z"/>
		<path class="st1" d="M634.4,658.7C634.4,658.7,634.4,658.7,634.4,658.7c-0.1-0.1-0.1-0.1-0.2-0.1L634.4,658.7z"/>
		<polygon class="st1" points="647.9,376.3 647.9,376.3 647.9,376.3 		"/>
		<path class="st1" d="M477.4,123.3C477.4,123.3,477.4,123.3,477.4,123.3C477.5,123.3,477.5,123.3,477.4,123.3L477.4,123.3z"/>
		<path class="st1" d="M873.9,520.2c-11.8-12-24-23.6-35.9-35.5c-5.9-5.9-11.4-12-17.1-18.1c0.7-0.4,1-0.9,0.9-1.7l-0.8-0.4l0.9,0.3
			c1.8-2.6,3.7-5.2,5.5-7.8l0.1-0.1c1.7-2.7,3.4-5.4,5.1-8.1c4.1-9.7,8-19.6,12.3-29.2c-4.3,9.6-8.2,19.5-12.3,29.2
			c1.6-2,3.5-3.9,4.8-6.1c25.7-44.5,36.3-92.7,33.2-143.7c-2-31.9-8.4-62.9-24.4-91.2l0-0.3c-0.9-1.7-1.8-3.3-2.7-5l0-0.2
			c-0.9-1.7-1.8-3.4-2.6-5.2l-0.1-0.2c-0.7-0.2-1.3-0.3-1.9-0.6c0.6,0.2,1.2,0.4,1.9,0.6c-2.6-4.4-5.2-8.8-7.8-13.2l-0.6,0.4
			l0.5-0.5c-1.7-2.6-3.4-5.2-5.1-7.9l-0.2-0.2c-1.9-2.6-3.7-5.1-5.6-7.7l0-0.1c-0.7-0.9-1.4-1.9-2.1-2.8c0,0-0.2-0.4-0.2-0.4
			c-2.8-3.3-5.6-6.7-8.4-10l0,0c-0.8-0.9-1.7-1.8-2.5-2.7l-0.6,0.4l0.5-0.5c-0.8-0.9-1.7-1.7-2.5-2.6l-0.1-0.2
			c-0.7-0.8-1.5-1.7-2.2-2.5l-0.3-0.4c-1.7-1.7-3.3-3.4-5-5.1c0,0-0.3-0.4-0.3-0.4c-1.7-1.6-3.5-3.3-5.2-4.9l-0.3-0.2
			c-0.9-0.8-1.7-1.5-2.6-2.3l-0.6,0.5l0.5-0.6c-0.9-0.8-1.8-1.7-2.6-2.5l-0.7,0.6l0.6-0.7c-1-0.8-1.9-1.6-2.9-2.3l0,0
			c-1.6-1.4-3.3-2.8-4.9-4.1c0.2,0,0.4,0,0.6,0.1c-38-36-99.5-47.5-102.1-48.1c-8.2-1.7-16.4-3.1-24.8-3.9
			c-47.9-4.2-93.8,2.9-136.3,26.5l0-0.1c-5.2,2.9-10.4,5.8-15.6,8.7l0.1-0.1c-1.1,0.7-2.2,1.4-3.3,2.1l0-0.1c-2.7,1.7-5.4,3.4-8,5.1
			l0.4,0.6l-0.5-0.5c-2.6,1.8-5.2,3.6-7.8,5.5l0,0c-1.6,1.2-3.1,2.3-4.7,3.5c-1.9,1.6-3.9,3.2-5.8,4.8l0.1-0.1c-1,0.8-2,1.7-3,2.5
			l0,0c-0.9,0.8-1.8,1.7-2.7,2.5l0.4,0.9l-0.5-0.9c-0.9,0.8-1.7,1.6-2.6,2.4l-0.2,0c-1.4,1.3-2.9,2.6-4.3,3.8
			c-1.7,1.7-3.4,3.4-5.2,5.2c-1.3,1.4-2.6,2.8-3.9,4.2l-0.2,0.3c-0.7,0.8-1.5,1.7-2.2,2.5c0,0-0.1,0.1-0.1,0.1
			c-0.8,0.9-1.6,1.8-2.5,2.7c0,0,0,0,0,0c-0.8,0.9-1.6,1.9-2.4,2.8c0,0-0.1,0-0.1,0c-1.6,1.9-3.3,3.9-4.9,5.8l0.1-0.1
			c-1.2,1.5-2.4,3.1-3.6,4.6l0.3,0.9l-0.4-0.8c-1.4,2-2.9,4.1-4.3,6.1l0.1-0.1c-1.8,2.7-3.6,5.4-5.4,8.1l0.1-0.1
			c-2.1,3.3-4.1,6.7-6.2,10c0,0,0,0,0,0c-1.9,2.9-4.1,5.6-5.8,8.7c-16.9,31.7-25,65.9-27.2,101.3c-1.6,25.3,0.5,50.8,9.3,75.1
			l-0.2,0c4.3,24.1,13.8,46,27.4,66.3l-0.1-0.1c0.7,1.1,1.5,2.2,2.2,3.3l-0.2-0.2c1.1,1.7,2.2,3.3,3.3,5c0.7,1,1.5,2.1,2.2,3.1
			l-0.2-0.2c1.1,1.7,2.3,3.3,3.4,5l-0.1-0.2c1.9,2.6,3.8,5.3,5.7,7.9c0.7,0.9,1.4,1.9,2.1,2.8c1.7,2,3.4,3.9,5.1,5.9l0,0
			c0.8,1,1.6,1.9,2.4,2.9l-0.1,0c0.8,0.9,1.7,1.8,2.5,2.7l-0.1,0.1c1.3,1.5,2.6,2.9,3.8,4.4c2.6,2.6,5.1,5.3,7.7,7.9
			c1,0.9,1.9,1.8,2.9,2.8l-0.1-0.1c1.4,1.3,2.9,2.5,4.3,3.8l0.4-0.9l-0.3,1c0.9,0.8,1.8,1.6,2.7,2.4c0,0,0,0,0,0
			c0.9,0.8,1.9,1.6,2.8,2.4l0,0.1c1.9,1.6,3.9,3.3,5.8,4.9l-0.1-0.2c1,0.9,2,1.7,3,2.6l-0.1-0.1c1.6,1.2,3.2,2.4,4.8,3.5l-0.2-0.2
			c1.1,0.8,2.2,1.6,3.3,2.4l-0.2-0.1c1.6,1.2,3.2,2.3,4.8,3.5l0,0c2.7,1.7,5.4,3.5,8,5.2l0.1,0c1.1,0.7,2.1,1.4,3.2,2l-0.2-0.1
			c3.5,2,7,3.9,10.5,5.9l-0.1-0.1c1.7,1,3.5,2,5.2,3l0-0.1c3.6,1.8,7.2,3.5,10.7,5.3c0,0,0-0.1,0-0.1c1.8,0.9,3.7,1.8,5.5,2.7
			l-0.2-0.1c1.7,1,3.4,2.1,5.1,3.1l0-0.2c1.1,0.7,2.2,1.3,3.3,2c1.6,1.1,3.3,2.2,4.9,3.3l-0.2-0.2c1.1,0.8,2.1,1.6,3.2,2.4l-0.2-0.2
			c1,0.9,2,1.9,3,2.8c1.8,1.6,3.5,3.3,5.3,4.9c1.8,1.9,3.5,3.7,5.3,5.6l-0.1-0.1c1.5,2,3.1,4,4.6,6l0,0c2.1,3.3,4.1,6.6,6.2,9.9
			c0,0,0,0,0,0c2.7,4.5,5.3,9,8,13.5l-0.1-0.2c0.7,1.1,1.4,2.2,2.1,3.4c-0.1,0-0.1,0-0.2,0c2,3.4,4,6.8,6,10.3l-0.1-0.1
			c0.8,1.1,1.5,2.2,2.3,3.2l-0.2-0.1c2.1,3.4,4.1,6.7,6.2,10.1c0.7,1.1,1.5,2.1,2.2,3.2l-0.2-0.2c1.1,1.7,2.3,3.3,3.4,5l-0.1-0.1
			c0.9,1,1.7,2.1,2.6,3.1l-0.2-0.2c0.9,1,1.7,2.1,2.6,3.1l-0.2-0.2c0.8,1,1.7,1.9,2.5,2.9l0,0c0.9,0.9,1.7,1.9,2.6,2.8l0,0
			c0.9,0.9,1.8,1.8,2.7,2.6l0,0c0.9,0.9,1.8,1.8,2.7,2.7c0.9,0.9,1.8,1.8,2.7,2.7c0.9,0.9,1.9,1.7,2.8,2.6l0,0c1,0.8,2,1.7,3,2.5
			l-0.2-0.2c1,0.8,2.1,1.6,3.1,2.4c3.5,2,6.9,3.9,10.4,5.9l-0.1-0.2c22.5,12.7,46.9,12.4,71,8.3c12.6-2.2,24.3-9.3,36.4-14.1
			c0,0-0.1,0.1-0.1,0.1c2-1.5,4.1-3,6.1-4.5l0,0c1.5-1.2,3.1-2.5,4.6-3.7c1.7-1.7,3.5-3.4,5.2-5.1c0.9-1,1.8-1.9,2.8-2.9
			c0,0,0,0.1,0,0.1c1.2-1.5,2.4-3.1,3.6-4.6c0,0,0,0,0,0c1.5-2,3-4,4.5-6c0,0,0,0,0,0l0.1-0.1c0,0,0,0,0,0
			c17.1-23.2,22.1-50.2,23.1-78.1c0.5-13.1,0.7-26.5-9.2-37.3l-0.7,0.7l0.6-0.8c-0.8-0.9-1.6-1.8-2.4-2.8l-0.3-0.3
			c-1-0.7-2-1.5-3-2.2l0,0c-8.4-2.2-16.9-4.4-25-6.6c-2.9-4.7-6.1-9.8-9.2-14.8l-0.5,0.6l0.4-0.7c-0.8-0.9-1.6-1.8-2.4-2.7l-0.2-0.3
			c-10.6-11.9-23.1-7.6-34.7-3.7c-3.7-6.2-7-11.8-10.3-17.3l-0.1-0.4c-0.7-0.8-1.4-1.5-2.1-2.3l-0.7-0.6c-0.9-0.7-1.8-1.3-2.6-2
			l-0.3-0.1c-11-8.2-21.7-7.2-32.1,1.2c-0.9,0.2-1.4,0.8-1.5,1.8c-1.5,0.1-3.1,0.2-5.7,0.4c0-19.7,0.5-38.9-0.3-58.1
			c-0.3-7.4-3.7-14.7-5.7-22l0.3,0.2c-1.2-1.6-2.3-3.3-3.5-4.9c-0.9-0.9-1.9-1.7-2.8-2.6c-1.9-1-3.7-2.1-5.6-3.1l-0.9,0.2
			c-7.7-4.8-15.3-4.5-23,0.2c0,0,0,0,0,0c-1.1,0.7-2.2,1.5-3.3,2.2l0.2-0.3c-1.9,1.8-3.8,3.7-5.8,5.5l0.3-0.2
			c-0.8,1-1.6,2.1-2.4,3.1c-0.9,1.9-1.8,3.7-2.8,5.6l0.2-0.2c-1,5-2.9,10.1-3,15.1c-0.3,25.1,0,50.3,0,75.4
			c-5.2-0.6-10.6-0.6-15.6-2c-73.1-21.1-132-94.6-115.3-194.9C486,194,565.6,138.3,651.3,149.7C714.2,158,772.1,210,784,272.5
			c1.6,14.3,4,28.7,4.6,43c1,25.4-6,49.5-13.9,73.4l0.2-0.1c-3.6,7.1-7.2,14.1-10.9,21.2l0.2-0.1c-0.7,1.1-1.4,2.2-2.1,3.3
			c-1.8,2.7-3.6,5.4-5.4,8c-1.1,1.6-2.3,3.2-3.4,4.8l0.2-0.2c-0.8,1-1.7,2.1-2.5,3.1l0.3-0.2c-1,1-2,2.1-3,3.1
			c-5.1,5.2-10.3,10.4-14.6,14.8c18.8,13.1,37.2,24.7,54.1,38c19.5,15.4,33.4,35.2,40.2,59.6c4.9,17.5,16,22.4,31.9,13.6
			c5.3-3,10.3-7,14.5-11.4C883.6,536.6,883.4,529.9,873.9,520.2z"/>
		<path class="st2" d="M590.6,361.3c3.7-3.2,6.5-5.6,10.6-9.1c-16-15.8-30.4-30.2-48.6-48.2c-2.7,2.8-5.8,5.9-8.1,8.3
			C561.8,330.7,575.8,345.6,590.6,361.3z"/>
		<path class="st2" d="M704.1,328.6c1-0.9,1.9-1.8,2.9-2.8c0.8-0.8,1.6-1.6,2.4-2.4c0.9-1.1,1.9-2.1,2.8-3.2
			c5.6-8.4,1-11.5-6.8-13.3c-13.1,12.9-26.1,25.7-39.1,38.4c-0.3,3.5-0.6,7-0.9,10.5c0,0,0.3,0.3,0.3,0.3c4.5,5.9,8.4,3.8,12-1
			c0,0-0.1,0-0.1,0c1-0.9,2-1.8,2.9-2.8c4.3-4.3,8.6-8.6,12.9-13c0.9-1,1.9-2,2.8-3l-0.2,0.2c1-1,1.9-1.9,2.9-2.9l-0.2,0.2
			c1-1,1.9-1.9,2.9-2.9l-0.2,0.2C702.2,330.5,703.1,329.5,704.1,328.6z"/>
		<path class="st2" d="M626.3,336.8C626.3,336.8,626.3,336.7,626.3,336.8c2.7,0.5,5.5,1.1,8.2,1.7c1.7-1.8,4.9-3.5,4.9-5.3
			c0.4-19.5,0.2-39,0.2-60.7c-5.7,0.6-9.5,0.9-13.3,1.3c0,0,0,0,0,0c-1.1,1.8-3,3.6-3,5.5c-0.3,17.4-0.3,34.9-0.1,52.3
			C623.3,333.3,625.2,335,626.3,336.8c-0.1-0.1-0.1-0.1-0.1-0.1L626.3,336.8z"/>
		<path class="st2" d="M663.9,348.2c0,2.1,0,4.1-0.1,6.2c0,0.9,0.5,1.4,1.4,1.5c0.3-3.5,0.6-7,0.8-10.5
			C665.4,346.4,664.7,347.3,663.9,348.2z"/>
	</g>
</g>
<g id="Sparks">
	<line class="st3" x1="551" y1="309" x2="595.6" y2="353.6"/>
	<line class="st3" x1="630.3" y1="269.8" x2="630.3" y2="332.8"/>
	<line class="st3" x1="712" y1="307.4" x2="668.6" y2="353.2"/>
</g>
</svg>
